<?xml version="1.0" encoding="utf-8"?>
<!-- Generator: Adobe Illustrator 25.2.1, SVG Export Plug-In . SVG Version: 6.00 Build 0)  -->
<svg version="1.1" xmlns="http://www.w3.org/2000/svg" xmlns:xlink="http://www.w3.org/1999/xlink" x="0px" y="0px"
	 viewBox="0 0 140.65 158.51" style="enable-background:new 0 0 140.65 158.51;" xml:space="preserve">
<style type="text/css">
	.st0{fill:#414042;}
	.st1{fill-rule:evenodd;clip-rule:evenodd;fill:#414042;}
	.st2{fill:#FFFFFF;}
	.st3{fill:#E07325;}
	.st4{fill-rule:evenodd;clip-rule:evenodd;fill:#FFFFFF;}
	.st5{fill-rule:evenodd;clip-rule:evenodd;fill:#E07325;}
</style>
<g id="Layer_1">
	<g>
		<path class="st5" d="M125.35,53.66l4.44-4.44c1.34-1.34,1.34-3.54,0-4.88l-13.4-13.4c-1.34-1.34-3.54-1.34-4.88,0l-4.44,4.44
			c-8.1-5.42-17.48-9.1-27.57-10.5v-2.64h2.07c2.26,0,4.11-1.92,4.11-4.26V8.42c0-2.34-1.85-4.26-4.11-4.26H58.99
			c-2.26,0-4.11,1.92-4.11,4.26v9.57c0,2.34,1.85,4.26,4.11,4.26h1.32V25C28.52,29.82,4.16,57.28,4.16,90.41
			c0,36.54,29.63,66.17,66.17,66.17c36.54,0,66.17-29.63,66.17-66.17C136.49,76.81,132.38,64.17,125.35,53.66z M70.33,143.11
			c-29.1,0-52.7-23.6-52.7-52.7c0-29.1,23.6-52.7,52.7-52.7c29.1,0,52.7,23.6,52.7,52.7C123.03,119.51,99.43,143.11,70.33,143.11z"
			/>
		<path class="st5" d="M70.33,90.41V46.49c-24.25,0-43.92,19.67-43.92,43.92c0,24.25,19.67,43.92,43.92,43.92
			c24.25,0,43.92-19.67,43.92-43.92c0-12.12-4.92-23.1-12.87-31.05L70.33,90.41z"/>
	</g>
</g>
<g id="Layer_2">
</g>
<g id="Layer_3">
</g>
<g id="Layer_4">
</g>
</svg>
